<?xml version='1.0' encoding='UTF-8'?>
<svg viewBox="-4 -2 32 32" xmlns="http://www.w3.org/2000/svg" xmlns:xlink="http://www.w3.org/1999/xlink">
  <g id="Layer_1" transform="translate(-4, -2)" style="enable-background:new 0 0 32 32">
    <g id="Passport">
      <path d="M18, 18L16, 18C16.1, 19.4 16.5, 20.8 17, 22C17.5, 20.8 17.9, 19.4 18, 18z" fill="#1177D7" class="Blue" />
    </g>
  </g>
  <g id="Layer_1" transform="translate(-4, -2)" style="enable-background:new 0 0 32 32">
    <g id="Passport">
      <path d="M17, 12C16.5, 13.2 16.1, 14.6 16, 16L18, 16C17.9, 14.6 17.5, 13.2 17, 12z" fill="#1177D7" class="Blue" />
    </g>
  </g>
  <g id="Layer_1" transform="translate(-4, -2)" style="enable-background:new 0 0 32 32">
    <g id="Passport">
      <path d="M21.9, 16C21.6, 14.5 20.6, 13.3 19.3, 12.6C19.6, 13.7 19.9, 14.8 20, 16L21.9, 16z" fill="#1177D7" class="Blue" />
    </g>
  </g>
  <g id="Layer_1" transform="translate(-4, -2)" style="enable-background:new 0 0 32 32">
    <g id="Passport">
      <path d="M21.9, 18L20, 18C19.9, 19.2 19.7, 20.3 19.3, 21.4C20.6, 20.7 21.6, 19.5 21.9, 18z" fill="#1177D7" class="Blue" />
    </g>
  </g>
  <g id="Layer_1" transform="translate(-4, -2)" style="enable-background:new 0 0 32 32">
    <g id="Passport">
      <path d="M7, 4L28, 4L28, 3C28, 2.4 27.6, 2 27, 2L7, 2C5.3, 2 4, 3.3 4, 5L4, 27C4, 28.7 5.3, 30 7, 30L27, 30C27.6, 30 28, 29.6 28, 29L28, 6L7, 6C6.4, 6 6, 5.6 6, 5C6, 4.4 6.4, 4 7, 4zM17, 10C20.9, 10 24, 13.1 24, 17C24, 20.9 20.9, 24 17, 24C13.1, 24 10, 20.9 10, 17C10, 13.1 13.1, 10 17, 10z" fill="#1177D7" class="Blue" />
    </g>
  </g>
  <g id="Layer_1" transform="translate(-4, -2)" style="enable-background:new 0 0 32 32">
    <g id="Passport">
      <path d="M14.7, 12.6C13.4, 13.3 12.4, 14.5 12.1, 16L14, 16C14.1, 14.8 14.4, 13.7 14.7, 12.6z" fill="#1177D7" class="Blue" />
    </g>
  </g>
  <g id="Layer_1" transform="translate(-4, -2)" style="enable-background:new 0 0 32 32">
    <g id="Passport">
      <path d="M14.7, 21.4C14.4, 20.3 14.1, 19.2 14, 18L12.1, 18C12.4, 19.5 13.4, 20.7 14.7, 21.4z" fill="#1177D7" class="Blue" />
    </g>
  </g>
</svg>